<?xml version="1.0" encoding="UTF-8"?>
<svg version="1.1" xmlns="http://www.w3.org/2000/svg" width="120" height="120">
<path d="M0 0 C39.6 0 79.2 0 120 0 C120 39.6 120 79.2 120 120 C80.4 120 40.8 120 0 120 C0 80.4 0 40.8 0 0 Z M16 16 C16 45.04 16 74.08 16 104 C45.04 104 74.08 104 104 104 C104 74.96 104 45.92 104 16 C74.96 16 45.92 16 16 16 Z " fill="#663333" transform="translate(0,0)"/>
<path d="M0 0 C0.70125 0.61875 1.4025 1.2375 2.125 1.875 C3.053125 2.679375 3.98125 3.48375 4.9375 4.3125 C7.92263447 8.1369055 7.93568202 12.17814 7.75390625 16.88671875 C6.7286791 21.75813969 3.99187628 24.85270912 0.125 27.875 C-5.2516965 29.66723217 -11.44827871 29.82458659 -16.75 27.75 C-17.45125 27.13125 -18.1525 26.5125 -18.875 25.875 C-19.803125 25.070625 -20.73125 24.26625 -21.6875 23.4375 C-24.67263447 19.6130945 -24.68568202 15.57186 -24.50390625 10.86328125 C-23.4786791 5.99186031 -20.74187628 2.89729088 -16.875 -0.125 C-11.4983035 -1.91723217 -5.30172129 -2.07458659 0 0 Z " fill="#663333" transform="translate(67.875,47.125)"/>
</svg>
