<?xml version="1.0" encoding="UTF-8"?>
<svg version="1.1" xmlns="http://www.w3.org/2000/svg" width="120" height="120">
<path d="M0 0 C5.28 0 10.56 0 16 0 C16 39.6 16 79.2 16 120 C-23.6 120 -63.2 120 -104 120 C-104 114.72 -104 109.44 -104 104 C-69.68 104 -35.36 104 0 104 C0 69.68 0 35.36 0 0 Z " fill="#663333" transform="translate(104,0)"/>
<path d="M0 0 C0.70125 0.61875 1.4025 1.2375 2.125 1.875 C3.053125 2.679375 3.98125 3.48375 4.9375 4.3125 C7.92263447 8.1369055 7.93568202 12.17814 7.75390625 16.88671875 C6.7286791 21.75813969 3.99187628 24.85270912 0.125 27.875 C-5.2516965 29.66723217 -11.44827871 29.82458659 -16.75 27.75 C-17.45125 27.13125 -18.1525 26.5125 -18.875 25.875 C-19.803125 25.070625 -20.73125 24.26625 -21.6875 23.4375 C-24.67263447 19.6130945 -24.68568202 15.57186 -24.50390625 10.86328125 C-23.4786791 5.99186031 -20.74187628 2.89729088 -16.875 -0.125 C-11.4983035 -1.91723217 -5.30172129 -2.07458659 0 0 Z " fill="#663333" transform="translate(83.875,61.125)"/>
</svg>
