<?xml version="1.0" encoding="UTF-8"?>
<svg version="1.1" xmlns="http://www.w3.org/2000/svg" width="120" height="120">
<path d="M0 0 C1.83984375 1.9140625 1.83984375 1.9140625 3.9375 4.625 C5.12666016 6.12933594 5.12666016 6.12933594 6.33984375 7.6640625 C6.76765137 8.20579102 7.19545898 8.74751953 7.63623047 9.30566406 C10.01857259 12.26546613 12.51370077 15.12752166 15 18 C18.55549497 22.12381645 22.06795546 26.27211905 25.5 30.5 C29.04637461 34.8632726 32.65933813 39.16365529 36.3125 43.4375 C36.81652344 44.02917969 37.32054687 44.62085938 37.83984375 45.23046875 C40.45301281 48.27683696 43.11121746 51.20728149 46 54 C52.82154583 46.77780697 59.48042655 39.53821931 65.69140625 31.77734375 C68.83237245 27.99861792 72.18422472 24.43726736 75.54345703 20.85327148 C79.56503042 16.53707497 83.30330218 12.06557567 86.96484375 7.4375 C89.20407251 4.75558302 91.33516636 2.26865336 94 0 C97.61451872 -0.06208143 99.68391447 2.21025493 102.25 4.5625 C102.95640625 5.20316406 103.6628125 5.84382813 104.390625 6.50390625 C104.92171875 6.99761719 105.4528125 7.49132813 106 8 C105.12321431 12.50683663 102.53843416 15.21029306 99.5625 18.5625 C99.02262451 19.18165283 98.48274902 19.80080566 97.92651367 20.4387207 C93.80642406 25.14505855 89.58591412 29.75619845 85.35546875 34.36328125 C83.02448261 36.9725941 80.81672813 39.6481282 78.625 42.375 C74.76187797 47.16636337 70.66183795 51.66426259 66.45288086 56.14819336 C63.20463614 59.63012475 60.1563585 63.20998941 57.1875 66.9375 C53.75964592 71.19276714 50.39813087 74.74538316 46 78 C45.01 78 44.02 78 43 78 C41.16015625 76.0859375 41.16015625 76.0859375 39.0625 73.375 C38.26972656 72.37210937 37.47695313 71.36921875 36.66015625 70.3359375 C36.23234863 69.79420898 35.80454102 69.25248047 35.36376953 68.69433594 C32.98142741 65.73453387 30.48629923 62.87247834 28 60 C23.69909809 55.01162843 19.49511286 49.95774772 15.34375 44.84375 C12.60697884 41.52313433 9.80894428 38.25955586 7 35 C2.55692752 29.84347734 -1.80966422 24.63944657 -6.08203125 19.33984375 C-7.70999116 17.35379897 -9.39739512 15.46049879 -11.125 13.5625 C-13 11 -13 11 -12.890625 9.07421875 C-11.68694802 6.27091843 -10.04518795 5.08276369 -7.625 3.25 C-6.83351563 2.63640625 -6.04203125 2.0228125 -5.2265625 1.390625 C-3 0 -3 0 0 0 Z " fill="#663333" transform="translate(13,39)"/>
<path d="M0 0 C0.70125 0.61875 1.4025 1.2375 2.125 1.875 C3.053125 2.679375 3.98125 3.48375 4.9375 4.3125 C7.92263447 8.1369055 7.93568202 12.17814 7.75390625 16.88671875 C6.7286791 21.75813969 3.99187628 24.85270912 0.125 27.875 C-5.2516965 29.66723217 -11.44827871 29.82458659 -16.75 27.75 C-17.45125 27.13125 -18.1525 26.5125 -18.875 25.875 C-19.803125 25.070625 -20.73125 24.26625 -21.6875 23.4375 C-24.67263447 19.6130945 -24.68568202 15.57186 -24.50390625 10.86328125 C-23.4786791 5.99186031 -20.74187628 2.89729088 -16.875 -0.125 C-11.4983035 -1.91723217 -5.30172129 -2.07458659 0 0 Z " fill="#663333" transform="translate(67.875,48.125)"/>
</svg>
