<?xml version="1.0" encoding="UTF-8"?>
<!DOCTYPE svg PUBLIC "-//W3C//DTD SVG 1.1//EN" "http://www.w3.org/Graphics/SVG/1.1/DTD/svg11.dtd">
<svg xmlns="http://www.w3.org/2000/svg" version="1.1" width="120px" height="120px" style="shape-rendering:geometricPrecision; text-rendering:geometricPrecision; image-rendering:optimizeQuality; fill-rule:evenodd; clip-rule:evenodd" xmlns:xlink="http://www.w3.org/1999/xlink">
<g><path style="opacity:0.912" fill="#653332" d="M 69.5,-0.5 C 70.5,-0.5 71.5,-0.5 72.5,-0.5C 75.351,3.18789 78.0177,7.02122 80.5,11C 62.1869,26.6431 43.8535,42.3097 25.5,58C 43.6667,74.1667 61.8333,90.3333 80,106.5C 80.6667,107.5 80.6667,108.5 80,109.5C 76.9336,112.566 73.9336,115.566 71,118.5C 50.2173,101.388 29.7173,83.8881 9.5,66C 6.38817,63.5609 4.05484,60.5609 2.5,57C 25.005,37.9921 47.3384,18.8254 69.5,-0.5 Z"/></g>
<g><path style="opacity:0.943" fill="#653332" d="M 51.5,43.5 C 68.816,42.6528 75.316,50.6528 71,67.5C 66.0843,74.1353 59.5843,76.302 51.5,74C 42.5702,68.3759 40.0702,60.5425 44,50.5C 46.3959,47.9334 48.8959,45.6 51.5,43.5 Z"/></g>
</svg>
