<?xml version="1.0" encoding="UTF-8"?>
<!DOCTYPE svg PUBLIC "-//W3C//DTD SVG 1.1//EN" "http://www.w3.org/Graphics/SVG/1.1/DTD/svg11.dtd">
<svg xmlns="http://www.w3.org/2000/svg" version="1.1" width="120px" height="120px" style="shape-rendering:geometricPrecision; text-rendering:geometricPrecision; image-rendering:optimizeQuality; fill-rule:evenodd; clip-rule:evenodd" xmlns:xlink="http://www.w3.org/1999/xlink">
<g><path style="opacity:0.912" fill="#653332" d="M 119.5,69.5 C 119.5,70.5 119.5,71.5 119.5,72.5C 115.812,75.351 111.979,78.0177 108,80.5C 92.3569,62.1869 76.6903,43.8535 61,25.5C 44.8333,43.6667 28.6667,61.8333 12.5,80C 11.5,80.6667 10.5,80.6667 9.5,80C 6.43361,76.9336 3.43361,73.9336 0.5,71C 17.6119,50.2173 35.1119,29.7173 53,9.5C 55.4391,6.38817 58.4391,4.05484 62,2.5C 81.0079,25.005 100.175,47.3384 119.5,69.5 Z"/></g>
<g><path style="opacity:0.942" fill="#653332" d="M 54.5,42.5 C 63.6141,40.5848 70.4474,43.5848 75,51.5C 77.302,59.5843 75.1353,66.0843 68.5,71C 58.4575,74.9298 50.6241,72.4298 45,63.5C 42.2679,53.6409 45.4346,46.6409 54.5,42.5 Z"/></g>
</svg>
