<?xml version="1.0" standalone="no"?>
<!DOCTYPE svg PUBLIC "-//W3C//DTD SVG 20010904//EN"
 "http://www.w3.org/TR/2001/REC-SVG-20010904/DTD/svg10.dtd">
<svg version="1.0" xmlns="http://www.w3.org/2000/svg"
 width="120.000000pt" height="120.000000pt" viewBox="0 0 120.000000 120.000000"
 preserveAspectRatio="xMidYMid meet">

<g transform="translate(0.000000,120.000000) scale(0.100000,-0.100000)"
fill="#000000" stroke="none">
<path d="M443 1140 c-24 -27 -43 -52 -43 -58 0 -5 123 -117 274 -248 151 -131
275 -242 275 -245 1 -4 -123 -111 -274 -238 -151 -128 -275 -236 -275 -240 0
-5 19 -31 41 -59 l42 -51 26 22 c15 12 167 140 339 285 171 145 312 269 312
276 0 11 -251 235 -655 587 -19 16 -21 15 -62 -31z"/>
</g>
</svg>
